<svg xmlns="http://www.w3.org/2000/svg" width="112" height="39" viewBox="0 0 112 39" fill="none"><path d="M19.7434 9.40411L22.4859 0.000244141L32.8972 0.0284416L36.9728 9.41821L19.7434 9.40411Z" fill="white"></path><path d="M49.2379 9.432L49.2633 9.37561L51.9931 0.0704338L41.5945 0.0422363L38.8266 9.41791L49.2379 9.432Z" fill="white"></path><path d="M18.0039 9.29118L20.6449 0.0705927L13.8775 9.89008e-05C11.7698 -0.0139999 9.89073 1.48047 9.24319 3.72217L7.59262 9.38987H17.9785L18.0039 9.30527V9.29118Z" fill="white"></path><path d="M68.2195 9.44623L64.1565 0.0987541L53.7452 0.0705566L51.0154 9.43213L68.2195 9.44623Z" fill="white"></path><path d="M11.135 16.3263H11.1096C10.9446 16.3686 10.7795 16.425 10.6272 16.4673H10.6018C10.4367 16.5096 10.2843 16.566 10.1193 16.6083C9.30669 16.8621 8.54489 17.13 7.85927 17.3978C6.00555 18.131 4.58351 19.7805 3.97407 21.853L1.67596 29.7483L12.0492 29.7765L16.3407 15.0715C14.4489 15.4522 12.7094 15.8611 11.1604 16.2981" fill="white"></path><path d="M50.4314 11.3922L45.048 29.8615L55.4212 29.8897L58.9255 17.9622L64.1058 29.9038L74.5298 29.932L80.256 10.2925C71.8254 10.4476 61.1474 10.7577 50.4314 11.3922Z" fill="white"></path><path d="M108.481 3.76461C106.373 1.45242 103.593 0.254025 100.126 0.183531V0.141235L72.8538 0.113037L70.1113 9.44641L95.7333 9.47461C95.7333 9.47461 95.8476 9.44641 95.8983 9.44641H95.9872C96.2538 9.40411 96.5205 9.37592 96.7871 9.37592C98.1584 9.37592 99.2757 9.88347 100.101 10.8845C100.952 11.8714 101.282 13.098 101.104 14.5643C100.875 16.3689 99.9486 17.9903 98.3107 19.4565C96.6728 20.8805 94.9969 21.5995 93.2828 21.5995C91.8735 21.5995 90.7562 21.1061 89.9436 20.1333C89.1056 19.1463 88.7755 17.9198 88.9659 16.4535C89.1945 14.6066 90.134 12.9711 91.7719 11.533C92.4321 10.955 93.0924 10.4897 93.7653 10.1372C91.2132 10.1372 87.2773 10.1795 82.4652 10.25C80.84 12.675 79.837 15.2974 79.4815 18.1171C78.999 21.9097 79.9005 25.0537 82.1986 27.5351C84.357 29.9178 87.2392 31.1021 90.8323 31.1162C95.3651 31.1162 99.7201 29.3679 103.872 25.8292C108.163 22.1776 110.627 17.948 111.236 13.1403C111.718 9.36182 110.804 6.23189 108.519 3.73642" fill="white"></path><path d="M18.1944 14.7333L13.8013 29.8048L24.1746 29.833L27.6788 17.9055L32.8591 29.8471L43.2704 29.8753L48.6284 11.5046C37.5569 12.1814 26.5869 13.2106 18.1817 14.7333" fill="white"></path><path d="M84.6998 33.9641L82.9858 38.6872H81.5256L82.681 35.5009L80.9416 38.6872H79.9005L80.421 35.5714L79.291 38.6872H77.8309L79.5449 33.9641H81.7034C81.6653 34.2461 81.6145 34.5845 81.5383 34.9651L81.3352 36.1635L82.516 33.9641H84.6871H84.6998ZM88.1914 36.7275C88.0137 37.2068 87.8867 37.5311 87.7851 37.7285C87.6835 37.9259 87.5185 38.1091 87.3026 38.2642C87.0868 38.4334 86.8202 38.5603 86.5154 38.6449C86.2107 38.7295 85.8806 38.7718 85.5124 38.7718C85.1442 38.7718 84.8776 38.7295 84.6363 38.6449C84.3951 38.5603 84.2173 38.4334 84.1158 38.2783C84.0142 38.1091 83.9761 37.94 84.0142 37.7426C84.0523 37.5452 84.1666 37.2068 84.3443 36.7275L84.6363 35.9238C84.8141 35.4586 84.9411 35.1202 85.0426 34.9228C85.1442 34.7254 85.3093 34.5422 85.5251 34.3871C85.7409 34.2179 86.0076 34.091 86.3123 34.0064C86.617 33.9218 86.9471 33.8795 87.3153 33.8795C87.6581 33.8795 87.9502 33.9218 88.1914 34.0064C88.4327 34.091 88.6104 34.2179 88.712 34.373C88.8136 34.5422 88.8516 34.7113 88.8135 34.9087C88.7755 35.1061 88.6612 35.4445 88.4834 35.9238L88.1914 36.7275ZM87.0868 35.1766C87.163 34.951 87.2011 34.8241 87.1884 34.7536C87.1884 34.6972 87.1249 34.6549 87.0106 34.6549C86.9217 34.6549 86.8456 34.6831 86.7821 34.7254C86.7186 34.7677 86.6424 34.9228 86.5535 35.1625L85.7536 37.3619C85.6521 37.6298 85.6013 37.799 85.614 37.8695C85.614 37.94 85.6775 37.9682 85.7917 37.9682C85.906 37.9682 85.9949 37.9259 86.0457 37.8554C86.1091 37.7849 86.1853 37.6016 86.2869 37.3337L87.0741 35.1625L87.0868 35.1766ZM89.8166 33.9641H91.0736C91.8862 33.9641 92.4194 33.9923 92.6861 34.0487C92.9527 34.1051 93.1304 34.1897 93.232 34.3166C93.3336 34.4435 93.3844 34.5845 93.359 34.7254C93.3463 34.8805 93.2447 35.1766 93.0923 35.6278L92.4956 37.2773C92.3432 37.7003 92.2163 37.9823 92.102 38.1232C92.0004 38.2642 91.8608 38.377 91.6957 38.4616C91.5307 38.5462 91.3402 38.6026 91.137 38.6308C90.9212 38.659 90.6292 38.6731 90.2229 38.6731H88.1152L89.8293 33.95L89.8166 33.9641ZM91.2005 34.7677L90.0705 37.8695C90.3118 37.8695 90.4768 37.8413 90.553 37.7567C90.6292 37.6862 90.7308 37.4888 90.845 37.1786L91.5053 35.3458C91.5814 35.1343 91.6195 34.9933 91.6322 34.9369C91.6322 34.8805 91.6068 34.8382 91.556 34.81C91.5053 34.7818 91.3783 34.7677 91.2005 34.7677ZM94.3112 33.9641H97.0918L96.749 34.9087H95.6317L95.3016 35.811H96.3427L96.0126 36.7134H94.9715L94.5906 37.7567H95.8221L95.4793 38.7013H92.5845L94.2985 33.9782L94.3112 33.9641ZM99.3645 33.9641L97.9933 37.7426H99.009L98.6662 38.6872H95.9745L97.6886 33.9641H99.3645ZM103.745 35.3881H102.196L102.323 35.0356C102.386 34.8664 102.399 34.7677 102.374 34.7254C102.348 34.6831 102.297 34.6549 102.196 34.6549C102.094 34.6549 102.005 34.6831 101.929 34.7395C101.853 34.7959 101.802 34.8946 101.752 35.0215C101.701 35.1766 101.675 35.2894 101.713 35.374C101.739 35.4586 101.866 35.5432 102.082 35.656C102.704 35.9802 103.085 36.2481 103.199 36.4596C103.313 36.6711 103.288 37.0094 103.123 37.4606C102.996 37.799 102.856 38.0527 102.691 38.2078C102.526 38.3629 102.272 38.5039 101.929 38.6026C101.586 38.7154 101.206 38.7718 100.799 38.7718C100.355 38.7718 99.9867 38.7013 99.72 38.5885C99.4534 38.4616 99.301 38.3065 99.2757 38.1091C99.2503 37.9118 99.301 37.6439 99.428 37.2914L99.5423 36.9812H101.091L100.888 37.5593C100.825 37.7285 100.799 37.8554 100.825 37.8977C100.85 37.9541 100.914 37.9682 101.028 37.9682C101.142 37.9682 101.231 37.94 101.307 37.8695C101.383 37.8131 101.447 37.7144 101.498 37.5875C101.599 37.3055 101.612 37.1222 101.536 37.0376C101.459 36.953 101.256 36.8121 100.914 36.6147C100.571 36.4173 100.355 36.2622 100.253 36.1776C100.152 36.0789 100.088 35.952 100.063 35.7969C100.037 35.6419 100.063 35.4304 100.152 35.1766C100.279 34.81 100.444 34.5563 100.634 34.3871C100.825 34.2179 101.066 34.091 101.383 33.9923C101.701 33.8936 102.056 33.8513 102.45 33.8513C102.882 33.8513 103.237 33.9077 103.504 34.0064C103.77 34.1051 103.923 34.2461 103.973 34.4012C104.012 34.5563 103.973 34.8241 103.834 35.2048L103.77 35.3881H103.745Z" fill="white"></path><path d="M0.355508 35.1343H73.5775L73.0442 36.9107H0L0.355508 35.1343Z" fill="white"></path></svg>